<?xml version="1.0" encoding="UTF-8"?>
<svg id="Layer_1" xmlns="http://www.w3.org/2000/svg" version="1.1" viewBox="0 0 2000 1769.3">
  <!-- Generator: Adobe Illustrator 29.6.1, SVG Export Plug-In . SVG Version: 2.1.1 Build 9)  -->
  <defs>
    <style>
      .st0 {
        fill: #004c9f;
      }
    </style>
  </defs>
  <path class="st0" d="M1963.2,458.4s0,0,0,0L1703.3,3.5s0,0,0,0c0,0,0,0,0,0,0-.1-.2-.3-.3-.4,0-.1-.1-.2-.2-.3-.1-.1-.2-.2-.3-.4,0-.1-.2-.2-.3-.3-.1-.1-.2-.2-.4-.3-.1,0-.2-.2-.3-.3-.1,0-.3-.2-.4-.3-.1,0-.2-.2-.3-.2-.1,0-.3-.2-.5-.2-.1,0-.2-.1-.4-.2-.2,0-.3-.1-.5-.2-.1,0-.2,0-.4-.1-.2,0-.4,0-.6-.1-.1,0-.2,0-.3,0-.3,0-.6,0-.9,0H504c-44.7,0-88.9,11.7-127.7,33.7-38.9,22.1-71.5,54-94.4,92.4L2.7,594.4s0,0,0,0c0,0,0,0,0,0,0,.1-.1.2-.2.4,0,.1-.1.3-.2.4,0,.1-.1.3-.2.4,0,.1-.1.3-.1.4,0,.1,0,.3,0,.4,0,.1,0,.3,0,.4,0,.2,0,.3,0,.5,0,.1,0,.3,0,.4,0,.2,0,.3,0,.5,0,.1,0,.3,0,.4,0,.2,0,.3,0,.5,0,.1,0,.3,0,.4,0,.2,0,.3.1.5,0,.1,0,.3.1.4,0,.2.1.3.2.4,0,.1.1.2.2.4,0,0,0,0,0,0,0,0,0,0,0,0l577.4,995.6c30.4,52.4,74.1,96,126.6,126.2,52.5,30.2,112.2,46.2,172.7,46.2h477.2c2.5,0,4.8-1.3,6-3.5,0,0,0,0,0,0l340.6-582.2s0,0,0,0c0,0,0,0,0,0l259.1-446.7c24.5-42.2,37.5-90.3,37.7-139.1.2-48.8-12.6-97-36.8-139.4ZM1260.9,404.4L1033.9,13.9h651.5l-320.1,570.1-104.3-179.5ZM1021.9,20.8l335.5,577.1-332,578.2-316.9-547.5-17.8-30.7,230.4-401.5,100.8-175.6ZM1356.6,1748.6l-323.3-558.6,110.7-192.8,221.2-385.3,198.1,347.5,125.8,220.7-332.6,568.5ZM293.8,133.3c21.7-36.3,52.5-66.6,89.3-87.5,36.8-20.9,78.6-31.9,120.9-31.9h505.8l-311.6,543-19.6,34.1H20.9L293.8,133.3ZM879.4,1755.5c-58.1,0-115.4-15.3-165.8-44.3s-92.4-70.9-121.5-121.2L20.7,604.9h657.9l340.7,588.6,325.2,562h-465.2ZM1950.3,730l-253,436.3-324-568.3,1.1-1.9L1697.3,21l253.9,444.3c23,40.3,35.1,86.1,34.9,132.5-.2,46.4-12.5,92.1-35.8,132.2Z"/>
</svg>