<?xml version="1.0" encoding="UTF-8"?>
<svg id="Layer_2" data-name="Layer 2" xmlns="http://www.w3.org/2000/svg" xmlns:xlink="http://www.w3.org/1999/xlink" viewBox="0 0 956.9 320.48">
  <defs>
    <style>
      .cls-1 {
        fill: url(#linear-gradient-2);
      }

      .cls-2 {
        fill: #1d1e23;
      }

      .cls-3 {
        fill: #e9edf4;
      }

      .cls-4 {
        fill: url(#linear-gradient);
      }
    </style>
    <linearGradient id="linear-gradient" x1="81.73" y1="245.94" x2="193.17" y2="90.25" gradientTransform="translate(0 321.24) scale(1 -1)" gradientUnits="userSpaceOnUse">
      <stop offset="0" stop-color="#003ab2"/>
      <stop offset=".29" stop-color="#0047c3"/>
      <stop offset=".85" stop-color="#006bf2"/>
      <stop offset="1" stop-color="#0076ff"/>
    </linearGradient>
    <linearGradient id="linear-gradient-2" x1="177.51" y1="246.3" x2="259.08" y2="152.57" xlink:href="#linear-gradient"/>
  </defs>
  <g>
    <path class="cls-2" d="M402.4,174.08c24.5,0,42.62,18.32,42.62,42.98s-18.12,43.1-42.62,43.1c-7.36,0-14.14-1.9-19.94-5.29-1.08-.63-2.44.21-2.44,1.46v29.07c0,.92-.74,1.66-1.66,1.66h-18.68c-.92,0-1.66-.74-1.66-1.66v-107.36c0-.92.74-1.66,1.66-1.66h11.87c.62,0,1.2.35,1.48.91l2.36,4.64c.48.95,1.69,1.17,2.52.51,6.68-5.3,15.1-8.37,24.49-8.37h0ZM422.75,217.48c.21-12.99-9.22-22.72-22.14-22.72s-21.94,9.55-22.17,21.8c-.24,13,9.22,22.79,22.16,22.79,12.27,0,21.95-9.6,22.15-21.88Z"/>
    <path class="cls-2" d="M454.31,222.76v-45.03c0-.92.74-1.66,1.66-1.66h18.53c.92,0,1.66.74,1.66,1.66v42.54c0,11.49,6.08,18.35,16.17,18.35s16.05-7,16.05-18.35v-42.54c0-.92.74-1.66,1.66-1.66h18.53c.92,0,1.66.74,1.66,1.66v45.03c0,21.82-15.05,36.4-37.9,36.4s-38.02-14.58-38.02-36.4Z"/>
    <path class="cls-2" d="M639.28,152.14h18.53c.92,0,1.66.74,1.66,1.66v101.42c0,.92-.74,1.66-1.66,1.66h-18.53c-.92,0-1.66-.74-1.66-1.66v-101.42c0-.92.74-1.66,1.66-1.66Z"/>
    <path class="cls-2" d="M745.28,259.15c-24.31,0-42.9-18.72-42.9-42.93s18.47-42.44,43.03-42.44c20.19,0,36.03,12.36,40.64,31.1.26,1.04-.57,2.04-1.63,2.04h-18.58c-.63,0-1.18-.37-1.46-.93-3.68-7.37-10.72-11.67-19.08-11.67-11.85,0-20.76,9.51-20.76,22.02s9.06,22.27,20.76,22.27c8.49,0,15.27-4.54,19.06-12.58.27-.58.84-.97,1.48-.97h18.88c1.06,0,1.88,1,1.64,2.03-4.5,19.19-20.63,32.06-41.06,32.06h0Z"/>
    <path class="cls-2" d="M858.61,259.15c-19.59,0-32.9-10.8-33.88-27.14-.06-.94.73-1.74,1.68-1.74h18.07c.84,0,1.49.65,1.6,1.49.8,6.2,6.07,9.3,13.35,9.3,6.07,0,11.49-2.75,11.49-8.15s-7-7.2-15.55-8.62c-12.91-2.15-29.33-5.6-29.33-24.65,0-15.29,13-25.85,32.51-25.85s31.36,10.08,32.33,25.26c.06.94-.73,1.74-1.68,1.74h-17.45c-.87,0-1.54-.68-1.65-1.54-.74-5.39-5.11-8.05-12.09-8.05s-10.81,3.11-10.81,7.74c0,5.39,6.9,6.64,15.29,8.16,13.18,2.37,30.01,5.16,30.01,24.84,0,16.48-13.48,27.22-33.88,27.22h0Z"/>
    <path class="cls-2" d="M672.94,176.08h18.53c.92,0,1.66.74,1.66,1.66v77.48c0,.92-.74,1.66-1.66,1.66h-18.53c-.92,0-1.66-.74-1.66-1.66v-77.48c0-.92.74-1.66,1.66-1.66ZM673.65,152.14h17.12c1.28,0,2.32,1.04,2.32,2.32v13.09c0,1.28-1.04,2.32-2.32,2.32h-17.12c-1.28,0-2.32-1.04-2.32-2.32v-13.09c0-1.28,1.04-2.32,2.32-2.32Z"/>
    <path class="cls-2" d="M795.25,176.08h18.53c.92,0,1.66.74,1.66,1.66v77.48c0,.92-.74,1.66-1.66,1.66h-18.53c-.92,0-1.66-.74-1.66-1.66v-77.48c0-.92.74-1.66,1.66-1.66ZM795.96,152.14h17.12c1.28,0,2.32,1.04,2.32,2.32v13.09c0,1.28-1.04,2.32-2.32,2.32h-17.12c-1.28,0-2.32-1.04-2.32-2.32v-13.09c0-1.28,1.04-2.32,2.32-2.32Z"/>
    <path class="cls-2" d="M956.9,239.08v16.13c0,.92-.74,1.66-1.66,1.66h-13.86c-17.78,0-28.7-10.92-28.7-28.85v-25.64c0-.92-.74-1.66-1.66-1.66h-11.29c-.92,0-1.66-.74-1.66-1.66v-9.53c0-.4.14-.79.41-1.09l31.01-35.74c.32-.36.77-.57,1.25-.57h2.26c.64,0,1.16.52,1.16,1.16v21.12c0,.92.74,1.66,1.66,1.66h18.98c.92,0,1.66.74,1.66,1.66v14.24c0,.92-.74,1.66-1.66,1.66h-18.61c-.92,0-1.66.74-1.66,1.66v29.83c0,7.8,4.49,12.3,12.45,12.3h8.27c.92,0,1.66.74,1.66,1.66Z"/>
    <path class="cls-2" d="M628.33,216.48c0,24.46-17.85,42.68-42.48,42.68-8.99,0-17.05-2.79-23.54-7.64-.89-.67-2.17-.34-2.57.7l-1.38,3.59c-.25.64-.86,1.06-1.55,1.06h-13.33c-.92,0-1.66-.74-1.66-1.66v-101.42c0-.92.74-1.66,1.66-1.66h18.53c.92,0,1.66.74,1.66,1.66v23.66c0,1.25,1.35,2.09,2.43,1.47,5.74-3.3,12.43-5.13,19.74-5.13,24.63,0,42.48,18.2,42.48,42.69ZM584.07,238.5c12.79,0,22.14-9.6,21.99-22.32-.15-12.7-9.62-22.01-22.32-21.85s-21.69,9.59-21.69,22.14,9.33,22.02,22.02,22.02h0Z"/>
  </g>
  <g>
    <path class="cls-2" d="M451.5,58.81h18.53c.92,0,1.66.74,1.66,1.66v77.48c0,.92-.74,1.66-1.66,1.66h-18.53c-.92,0-1.66-.74-1.66-1.66V60.46c0-.92.74-1.66,1.66-1.66ZM452.21,34.87h17.12c1.28,0,2.32,1.04,2.32,2.32v13.09c0,1.28-1.04,2.32-2.32,2.32h-17.12c-1.28,0-2.32-1.04-2.32-2.32v-13.09c0-1.28,1.04-2.32,2.32-2.32Z"/>
    <path class="cls-2" d="M531.8,60.02v17.29c0,.92-.74,1.66-1.66,1.66h-7.82c-12.31,0-17.18,5.45-17.18,18.66v40.32c0,.92-.74,1.66-1.66,1.66h-18.53c-.92,0-1.66-.74-1.66-1.66V60.46c0-.92.74-1.66,1.66-1.66h11.22c.68,0,1.29.42,1.54,1.05l2.48,6.32c.44,1.11,1.89,1.42,2.71.56,5.48-5.77,12.34-8.38,21.71-8.38h5.52c.92,0,1.66.74,1.66,1.66Z"/>
    <path class="cls-2" d="M599.92,121.81v16.13c0,.92-.74,1.66-1.66,1.66h-13.86c-17.78,0-28.7-10.92-28.7-28.85v-30.11c0-.92-.74-1.66-1.66-1.66h-11.29c-.92,0-1.66-.74-1.66-1.66v-5.06c0-.4.14-.79.41-1.09l31.01-35.74c.32-.36.77-.57,1.25-.57h2.26c.64,0,1.16.52,1.16,1.16v21.12c0,.92.74,1.66,1.66,1.66h18.98c.92,0,1.66.74,1.66,1.66v14.24c0,.92-.74,1.66-1.66,1.66h-18.61c-.92,0-1.66.74-1.66,1.66v29.83c0,7.8,4.49,12.3,12.45,12.3h8.27c.92,0,1.66.74,1.66,1.66Z"/>
    <path class="cls-2" d="M609.21,105.49v-45.03c0-.92.74-1.66,1.66-1.66h18.53c.92,0,1.66.74,1.66,1.66v42.54c0,11.49,6.08,18.35,16.17,18.35s16.05-7,16.05-18.35v-42.54c0-.92.74-1.66,1.66-1.66h18.53c.92,0,1.66.74,1.66,1.66v45.03c0,21.82-15.04,36.4-37.89,36.4s-38.02-14.58-38.02-36.4Z"/>
    <path class="cls-2" d="M781.98,60.34v77.48c0,.92-.74,1.66-1.66,1.66h-14.18c-.76,0-1.42-.51-1.61-1.24l-.9-3.49c-.3-1.17-1.69-1.6-2.65-.86-6.64,5.07-14.95,8-24.19,8-24.3,0-42.38-18.35-42.38-42.8s18.08-42.56,42.38-42.56c9.45,0,17.92,3.03,24.63,8.28.93.73,2.3.35,2.64-.79l1.26-4.15c.21-.7.86-1.18,1.59-1.18h13.42c.92,0,1.66.75,1.66,1.66ZM760.57,99.5c.21-12.9-9.16-22.56-21.99-22.56-12.17,0-21.79,9.49-22.02,21.66-.24,12.9,9.16,22.63,22.01,22.63,12.19,0,21.8-9.54,22-21.73Z"/>
    <path class="cls-2" d="M795.25,34.9h18.53c.92,0,1.66.74,1.66,1.66v101.6c0,.92-.74,1.66-1.66,1.66h-18.53c-.92,0-1.66-.74-1.66-1.66V36.56c0-.92.74-1.66,1.66-1.66Z"/>
    <path class="cls-2" d="M440.43,61.06l-30.79,77.51c-.25.63-.85,1.04-1.53,1.04h-17.94c-.67,0-1.27-.41-1.52-1.02l-31.54-77.51c-.44-1.08.36-2.26,1.52-2.26h19.71c.69,0,1.31.43,1.54,1.08l17.82,48.79c.53,1.44,2.57,1.44,3.09,0l17.5-48.77c.23-.65.85-1.09,1.55-1.09h19.05c1.16,0,1.96,1.17,1.53,2.25Z"/>
  </g>
  <rect class="cls-3" width="320.48" height="320.48" rx="92.52" ry="92.52"/>
  <path class="cls-4" d="M103.44,61.94c20.11,1.08,38.29,17.36,39.29,37.74.37,4.62.04,9.44-.15,14.11-1.13,16.42,3.25,31.32,12.04,44.12,11.63,16.58,30.69,43.5,40.36,57.29,19.72,24.06-5.66,56.28-33.22,39.2-3.58-2.33-6.38-5.14-8.34-8.09-12.01-16.83-90.58-126.9-101.59-142.33-8.65-11.12-7.11-30.43,6.21-37.87,12.03-7.31,30.62-4.13,44.85-4.22l.55.05Z"/>
  <path class="cls-1" d="M224.77,61.81c41.56,4.31,63.97,54.79,38.48,88.78-3.28,4.52-7.26,8.46-11.69,11.86-4.14,3.18-7.94,6.26-9.14,11.29-1.19,4.56-1.15,9.27-3.67,13.51-6.1,11.06-20.2,17.14-31.18,9.79-7.2-4.07-12.96-15.39-19.33-23.99-8.12-12.68-17.31-22.59-22.61-36.28-14.76-37.75,18.45-80.41,58.54-75.03l.59.07Z"/>
</svg>